<svg width="22" height="22" viewBox="0 0 22 22" fill="none" xmlns="http://www.w3.org/2000/svg">
<path d="M18.9183 7.68957L13.6287 6.92082L11.2641 2.12707C11.1996 1.99582 11.0933 1.88957 10.9621 1.82498C10.6329 1.66248 10.2329 1.7979 10.0683 2.12707L7.70372 6.92082L2.41413 7.68957C2.2683 7.7104 2.13497 7.77915 2.03288 7.88332C1.90947 8.01016 1.84146 8.18082 1.84381 8.35778C1.84615 8.53474 1.91865 8.70353 2.04538 8.82707L5.87247 12.5583L4.9683 17.8271C4.9471 17.9496 4.96066 18.0757 5.00745 18.1909C5.05424 18.3062 5.13239 18.406 5.23303 18.4791C5.33367 18.5522 5.45277 18.5956 5.57684 18.6045C5.70091 18.6133 5.82497 18.5872 5.93497 18.5292L10.6662 16.0417L15.3975 18.5292C15.5266 18.5979 15.6766 18.6208 15.8204 18.5958C16.1829 18.5333 16.4266 18.1896 16.3641 17.8271L15.46 12.5583L19.2871 8.82707C19.3912 8.72498 19.46 8.59165 19.4808 8.44582C19.5371 8.08123 19.2829 7.74373 18.9183 7.68957Z" fill="#FEA250"/>
</svg>
