<svg width="67" height="68" viewBox="0 0 67 68" fill="none" xmlns="http://www.w3.org/2000/svg">
<path d="M63.5682 4.72636C61.2844 2.12545 57.8905 0.507812 54.1476 0.507812C50.5951 0.507812 47.3597 1.96686 45.0442 4.34574C43.712 5.70963 42.697 7.35899 42.0943 9.19866C41.682 10.4674 41.46 11.7996 41.46 13.1952C41.46 15.5741 42.1261 17.8261 43.2997 19.7292C43.9341 20.8076 44.7588 21.7909 45.7103 22.6156C47.9307 24.6455 50.8805 25.8826 54.1476 25.8826C55.5433 25.8826 56.8755 25.6605 58.1125 25.2165C61.0307 24.2966 63.4731 22.2984 64.9956 19.7292C65.6617 18.6508 66.1692 17.4137 66.4546 16.145C66.7084 15.1934 66.8353 14.2102 66.8353 13.1952C66.8353 9.9599 65.5982 6.97837 63.5682 4.72636ZM58.8738 15.5106H56.5266V17.9847C56.5266 19.2851 55.4481 20.3635 54.1476 20.3635C52.8471 20.3635 51.7687 19.2851 51.7687 17.9847V15.5106H49.4215C48.121 15.5106 47.0425 14.4322 47.0425 13.1317C47.0425 11.8313 48.121 10.7529 49.4215 10.7529H51.7687V8.50086C51.7687 7.2004 52.8471 6.12197 54.1476 6.12197C55.4481 6.12197 56.5266 7.2004 56.5266 8.50086V10.7529H58.8738C60.1743 10.7529 61.2527 11.8313 61.2527 13.1317C61.2527 14.4322 60.206 15.5106 58.8738 15.5106Z" fill="#292D32"/>
<path d="M63.6639 35.3986C63.6639 31.2435 62.8709 27.247 61.3801 23.5993C60.3968 24.2972 59.2866 24.8364 58.113 25.217C57.7641 25.3439 57.4152 25.439 57.0346 25.5342C58.2399 28.5791 58.906 31.9096 58.906 35.3986C58.906 42.7573 55.9244 49.4499 51.1031 54.3345C50.1833 53.1609 49.0096 52.0825 47.614 51.1627C39.0181 45.3899 24.9348 45.3899 16.2755 51.1627C14.8798 52.0825 13.7379 53.1609 12.7864 54.3345C7.96506 49.4499 4.98346 42.7573 4.98346 35.3986C4.98346 20.5227 17.0685 8.43794 31.9447 8.43794C35.4021 8.43794 38.7326 9.10403 41.7777 10.3093C41.8728 9.92871 41.968 9.5798 42.0949 9.19918C42.4755 8.0256 43.0147 6.94717 43.7443 5.9639C40.0966 4.47314 36.0999 3.68018 31.9447 3.68018C14.4675 3.68018 0.225586 17.9218 0.225586 35.3986C0.225586 44.597 4.19048 52.8755 10.4709 58.6799C10.4709 58.7117 10.4709 58.7117 10.4392 58.7434C10.7563 59.0606 11.137 59.3143 11.4542 59.5998C11.6445 59.7584 11.8031 59.917 11.9934 60.0438C12.5643 60.5196 13.1987 60.9637 13.8014 61.4077C14.0234 61.5663 14.2137 61.6932 14.4358 61.8518C15.0384 62.2641 15.6728 62.6447 16.3389 62.9936C16.5609 63.1205 16.8147 63.2791 17.0367 63.406C17.6711 63.7549 18.3372 64.0721 19.035 64.3575C19.2888 64.4844 19.5425 64.6113 19.7963 64.7064C20.4941 64.9919 21.1919 65.2456 21.8898 65.4677C22.1435 65.5628 22.3973 65.658 22.651 65.7214C23.4123 65.9435 24.1735 66.1338 24.9348 66.3241C25.1568 66.3875 25.3789 66.4509 25.6326 66.4827C26.5208 66.673 27.4089 66.7999 28.3288 66.895C28.4556 66.895 28.5825 66.9267 28.7094 66.9584C29.7878 67.0536 30.8663 67.117 31.9447 67.117C33.0232 67.117 34.1016 67.0536 35.1484 66.9584C35.2752 66.9584 35.4021 66.9267 35.529 66.895C36.4489 66.7999 37.337 66.673 38.2251 66.4827C38.4472 66.4509 38.6692 66.3558 38.9229 66.3241C39.6842 66.1338 40.4772 65.9752 41.2067 65.7214C41.4605 65.6263 41.7142 65.5311 41.968 65.4677C42.6658 65.2139 43.3953 64.9919 44.0615 64.7064C44.3152 64.6113 44.569 64.4844 44.8227 64.3575C45.4888 64.0721 46.1549 63.7549 46.821 63.406C47.0748 63.2791 47.2968 63.1205 47.5188 62.9936C48.1532 62.613 48.7876 62.2641 49.422 61.8518C49.644 61.7249 49.8343 61.5663 50.0564 61.4077C50.6908 60.9637 51.2934 60.5196 51.8644 60.0438C52.0547 59.8852 52.2133 59.7266 52.4036 59.5998C52.7525 59.3143 53.1014 59.0288 53.4186 58.7434C53.4186 58.7117 53.4186 58.7117 53.3869 58.6799C59.699 52.8755 63.6639 44.597 63.6639 35.3986Z" fill="#292D32"/>
<path d="M31.9464 19.3154C25.3806 19.3154 20.0518 24.6441 20.0518 31.2099C20.0518 37.6487 25.0951 42.8823 31.7878 43.0726H32.0733H32.2953H32.3588C38.7661 42.8505 43.8094 37.6487 43.8411 31.2099C43.8411 24.6441 38.5123 19.3154 31.9464 19.3154Z" fill="#292D32"/>
</svg>
