<svg width="54" height="55" viewBox="0 0 54 55" fill="none" xmlns="http://www.w3.org/2000/svg">
<rect width="53.85" height="55" fill="white"/>
<g clip-path="url(#clip0_582_356)">
<path d="M47.9638 43.2037H42.7861C42.5065 43.2037 42.4133 43.2865 42.4133 43.5661C42.4133 44.3117 42.4133 45.0469 42.4133 45.8339H43.5317C43.7411 45.8258 43.9491 45.8708 44.1364 45.9647C44.3237 46.0586 44.4842 46.1983 44.603 46.3708C44.7219 46.5434 44.7951 46.7432 44.816 46.9517C44.8369 47.1602 44.8048 47.3705 44.7226 47.5632L43.0243 52.3474C42.9525 52.6563 42.7689 52.9278 42.5089 53.1094C42.2489 53.2911 41.9308 53.37 41.616 53.3311C32.2065 53.3311 22.7936 53.3311 13.3772 53.3311C13.0879 53.3549 12.7991 53.2783 12.5596 53.1143C12.3201 52.9502 12.1444 52.7086 12.0621 52.4302C11.5858 51.1462 11.1301 49.8517 10.6848 48.5573C10.4877 48.0655 10.3385 47.5557 10.2396 47.0351C10.2395 46.7146 10.3654 46.4069 10.5901 46.1783C10.8148 45.9498 11.1203 45.8186 11.4408 45.8132C11.8343 45.8132 12.2278 45.8132 12.6523 45.8132V42.8827H5.51758V40.3146H6.60488C7.6404 40.3146 8.75877 40.3146 9.84607 40.3146C10.136 40.3146 10.2396 40.2317 10.2292 39.9211C10.2292 38.8855 10.2292 37.7361 10.2292 36.6488C10.2251 35.8687 10.284 35.0895 10.4053 34.3189C10.8796 31.6767 12.2961 29.2962 14.392 27.619C15.8182 26.478 17.4199 25.5758 19.1347 24.9474C19.8412 24.6831 20.5642 24.4652 21.299 24.295C21.4081 24.2841 21.5183 24.2949 21.6232 24.3269C21.728 24.3589 21.8255 24.4114 21.9099 24.4814L25.9692 27.6708C26.4352 28.0332 26.9012 28.3957 27.3775 28.7063C27.429 28.7319 27.4857 28.7452 27.5432 28.7452C27.6007 28.7452 27.6574 28.7319 27.7089 28.7063L31.6439 25.5997C32.2652 25.113 32.8969 24.6367 33.5285 24.1707C33.6431 24.0907 33.7838 24.0574 33.922 24.0775C34.6573 24.2639 35.3718 24.4917 36.107 24.6678C37.0922 24.9355 38.0415 25.3214 38.934 25.8172C41.1942 26.9418 42.9576 28.8638 43.8838 31.2123C44.3706 32.4017 44.6474 33.6665 44.7019 34.9505C44.7019 36.5349 44.8054 38.0571 44.8365 39.6932C44.8365 40.0143 44.9297 40.1385 45.261 40.1282C46.048 40.1282 46.835 40.1282 47.622 40.1282C47.8084 40.1282 47.9638 40.1282 47.9638 40.3974V43.2037ZM27.5018 51.405H39.9281C40.4769 51.405 40.4769 51.405 40.4769 50.8769C40.4769 45.9375 40.4769 40.998 40.4769 36.0585C40.4769 34.7331 40.1041 34.4742 38.8926 34.4742H16.111C15.9524 34.4637 15.7933 34.4637 15.6347 34.4742C15.4885 34.4733 15.3439 34.5034 15.2102 34.5624C15.0765 34.6214 14.9568 34.708 14.859 34.8166C14.7612 34.9252 14.6875 35.0532 14.6427 35.1923C14.5979 35.3314 14.5831 35.4784 14.5991 35.6236V50.8458C14.5991 51.3843 14.5991 51.3843 15.1376 51.3843L27.5018 51.405Z" stroke="#0E8C59" stroke-miterlimit="10"/>
<path d="M27.5542 2.52818C29.5019 2.53228 31.4047 3.11386 33.0219 4.19936C34.639 5.28486 35.898 6.82553 36.6396 8.62655C37.3812 10.4276 37.572 12.4081 37.188 14.3175C36.804 16.227 35.8624 17.9798 34.4823 19.3541C33.1021 20.7285 31.3455 21.6627 29.4344 22.0386C27.5233 22.4146 25.5436 22.2154 23.7457 21.4663C21.9479 20.7171 20.4125 19.4517 19.3338 17.83C18.2551 16.2082 17.6815 14.303 17.6856 12.3553C17.6801 11.0598 17.9319 9.776 18.4264 8.57851C18.9209 7.38102 19.6483 6.29364 20.5663 5.37946C21.4843 4.46529 22.5747 3.7425 23.7743 3.25305C24.9739 2.76359 26.2587 2.5172 27.5542 2.52818Z" stroke="#0E8C59" stroke-miterlimit="10"/>
<path d="M27.5325 45.4921C27.2302 45.4962 26.9301 45.4403 26.6495 45.3278C26.369 45.2153 26.1135 45.0483 25.8978 44.8365C25.6821 44.6247 25.5106 44.3722 25.393 44.0937C25.2754 43.8152 25.2142 43.5162 25.2129 43.2139C25.2504 42.6112 25.5088 42.0435 25.9387 41.6193C26.3685 41.1952 26.9397 40.9444 27.5428 40.915C28.1483 40.9526 28.7186 41.212 29.1447 41.6438C29.5708 42.0757 29.8226 42.6494 29.852 43.2553C29.8332 43.8569 29.5801 44.4274 29.1469 44.8451C28.7136 45.2629 28.1343 45.4951 27.5325 45.4921Z" stroke="#0E8C59" stroke-miterlimit="10"/>
</g>
<defs>
<clipPath id="clip0_582_356">
<rect width="43.4817" height="51.8591" fill="white" transform="translate(5 2)"/>
</clipPath>
</defs>
</svg>
