<svg width="54" height="41" viewBox="0 0 54 41" fill="none" xmlns="http://www.w3.org/2000/svg">
<path d="M53.9169 34.5277C51.8849 37.0263 49.3982 37.588 47.4792 35.6229C48.4507 35.4593 49.1949 35.273 49.9504 35.2207C51.4344 35.1135 52.2859 34.5237 52.2817 32.9915C52.2591 24.9354 52.2662 16.8792 52.2549 8.82301C52.2549 8.63803 52.1546 8.45305 52.0459 8.07504C49.7315 8.35922 47.2674 7.24395 45.1451 9.17019C44.7398 9.53882 43.8064 9.45839 43.1173 9.45973C32.3856 9.47582 21.6694 9.49726 10.9461 9.4289C9.92374 9.4222 8.92964 8.69298 7.8833 8.52945C5.94028 8.22785 3.96903 8.0938 1.71677 7.85922C1.71677 11.7962 1.71677 15.3658 1.71677 18.9435C1.71677 20.674 1.78596 22.4099 1.67441 24.1338C1.64052 24.6525 1.10958 25.1418 0.796102 25.6431C0.558874 25.1552 0.121131 24.6699 0.115483 24.1807C0.0688843 19.7866 0.083005 15.3926 0.083005 10.9972C0.083005 8.6005 0.063236 6.20375 0.083005 3.80701C0.102774 1.41026 1.2635 0.187761 3.7205 0.0805242C5.46865 9.6486e-05 7.22668 0.00277741 8.97342 0.0805242C9.49023 0.104652 9.98446 0.526897 10.49 0.76684C9.95339 1.06308 9.43799 1.56174 8.87457 1.61535C7.55711 1.7494 6.21564 1.65422 4.88405 1.65958C1.93564 1.67031 1.67441 1.92767 1.71395 4.79224C1.72101 5.25336 1.77326 5.71314 1.81985 6.41286C4.18366 6.13673 6.6435 7.28148 8.73901 5.2976C9.09768 4.95846 9.92233 4.97589 10.5309 4.97455C21.5357 4.95668 32.54 4.95668 43.5438 4.97455C44.0888 4.97455 44.8443 4.93836 45.1437 5.24264C47.1926 7.30963 49.7075 6.07239 52.1659 6.53217C52.2083 5.59384 52.2676 4.9531 52.2647 4.30834C52.2549 2.01481 51.9004 1.66897 49.418 1.66628C37.9237 1.6569 26.428 1.66629 14.9338 1.64484C14.0781 1.64484 13.2238 1.39417 12.368 1.26013L12.385 0.455852C13.0557 0.321806 13.7265 0.0537133 14.3972 0.0537133C26.1019 0.029585 37.8065 0.0604173 49.5126 0.0135011C51.4457 0.00545834 52.8635 0.658262 53.9112 2.14886L53.9169 34.5277ZM27.0042 7.88737H42.1261C42.6175 7.88737 43.1286 7.96244 43.5904 7.85252C43.9942 7.756 44.343 7.45038 44.72 7.23457C44.3769 6.9973 44.0578 6.71178 43.6793 6.54288C43.4492 6.44101 43.1286 6.51741 42.849 6.51741C32.2769 6.51741 21.7047 6.50402 11.1339 6.54825C10.5154 6.54825 9.89973 7.00535 9.28266 7.25065C9.94068 7.46244 10.5959 7.85252 11.2596 7.85922C16.5026 7.90345 21.7541 7.88603 27.0042 7.88737Z" fill="#0E8C59"/>
<path d="M33.5937 35.1872C33.6064 33.2462 33.6629 32.0224 32.0404 30.387C30.3967 28.7262 28.9875 25.6337 28.9748 23.3402C28.9635 21.2129 31.3287 18.9904 31.6422 16.4194C34.383 15.8832 36.8753 13.7385 39.2476 13.6969C41.5069 13.6621 43.9343 15.9368 46.6624 16.3484C47.1058 18.9368 49.4541 21.2276 49.4145 23.4354C49.375 25.6431 47.2188 27.9742 46.5805 30.5103C46.4732 30.9393 45.4311 31.1564 44.5005 31.6377L45.3859 36.1027C45.1854 36.9915 44.7476 38.0585 44.7462 39.1268C44.7462 40.8614 43.9145 41.3158 42.3852 40.7716C40.3321 40.041 38.3693 39.9794 36.2639 40.6684C34.0978 41.3788 33.7222 41.0155 33.6841 38.7917C33.6756 38.2636 33.6841 37.7341 33.6841 36.9312C32.8043 36.8936 32.0023 36.8306 31.2002 36.8306C22.5075 36.8244 13.8153 36.8244 5.12348 36.8306C1.21063 36.8199 0.0880344 35.7596 0.0852103 32.1176C0.0852103 30.9178 0.0343757 29.7168 0.120512 28.5238C0.147341 28.1458 0.544134 27.7919 0.764417 27.4273C1.07931 27.7852 1.63849 28.1283 1.66532 28.5064C1.77405 30.0305 1.73451 31.5666 1.71757 33.0974C1.70203 34.4124 2.4349 35.1631 3.73683 35.1671C13.6086 35.2033 23.4804 35.1872 33.5937 35.1872ZM33.5047 17.3403C32.6109 19.2612 32.1336 20.9287 31.1324 22.233C30.3148 23.3054 30.4137 23.7491 31.2059 24.7128C31.9761 25.6888 32.4788 26.8311 32.6688 28.0372C32.8481 29.1819 33.1743 29.5399 34.4084 29.7235C35.6793 29.9152 36.9925 30.4902 38.053 31.2087C39.0047 31.8535 39.4778 31.7449 40.3872 31.1618C41.4632 30.4634 42.8413 30.1994 44.0275 29.6297C44.6361 29.3374 45.5596 28.7986 45.5666 28.3589C45.5949 26.7021 46.147 25.4099 47.4475 24.3147C47.761 24.0466 47.9869 23.3027 47.8217 22.9743C46.8996 21.1646 45.8448 19.4153 44.6714 17.3604C44.1532 17.2907 42.9614 17.3497 41.9884 16.9382C40.9562 16.5012 40.133 15.6192 38.985 14.7559C37.5983 16.8577 35.5621 17.6486 33.5047 17.3403ZM35.7005 30.9594L35.4562 31.505V38.7904H42.9162V30.8173C40.4041 34.025 38.0431 34.2623 35.7005 30.9594Z" fill="#0E8C59"/>
<path d="M6.78473 20.0332C7.37922 19.8616 7.97229 19.5493 8.56818 19.5426C13.0289 19.5011 17.4925 19.493 21.9532 19.5533C22.5336 19.56 23.1083 20.0118 23.6859 20.2584C23.0998 20.56 22.5181 21.115 21.925 21.1244C17.5349 21.1981 13.1419 21.186 8.75034 21.1418C8.0909 21.1418 7.43429 20.8187 6.77344 20.6458L6.78473 20.0332Z" fill="#0E8C59"/>
<path d="M15.321 24.1793C13.0094 24.1793 10.6951 24.2222 8.38631 24.1458C7.88644 24.1284 7.39786 23.6847 6.91211 23.4367C7.39221 23.1686 7.86808 22.6606 8.3496 22.6539C12.9746 22.5949 17.5987 22.5949 22.2218 22.6539C22.7075 22.6539 23.1862 23.1512 23.6678 23.4179C23.1975 23.6713 22.7344 24.1284 22.2557 24.1444C19.9455 24.2209 17.6311 24.1793 15.321 24.1793Z" fill="#0E8C59"/>
<path d="M13.7779 14.5722C15.5939 14.5722 17.4126 14.5146 19.2229 14.6098C19.6931 14.6352 20.1337 15.1459 20.587 15.4261C20.1464 15.6593 19.7101 16.0856 19.2653 16.0963C15.5656 16.1499 11.8651 16.1499 8.16354 16.0963C7.73991 16.0896 7.32618 15.6258 6.9082 15.3738C7.31347 15.1057 7.70744 14.6339 8.124 14.6151C10.0049 14.5253 11.8928 14.5722 13.7779 14.5722Z" fill="#0E8C59"/>
<path d="M11.2004 27.3107C10.1568 27.3107 9.10485 27.3871 8.07686 27.2705C7.65324 27.2235 7.29457 26.7544 6.90625 26.4769C7.26774 26.241 7.62217 25.8067 7.98931 25.7986C10.2811 25.7343 12.5771 25.7262 14.8675 25.7986C15.2587 25.8107 15.6314 26.3147 16.0141 26.5908C15.5905 26.8308 15.1838 27.2396 14.7433 27.2758C13.5698 27.375 12.3823 27.312 11.2004 27.3107Z" fill="#0E8C59"/>
<path d="M39.1595 28.2783C36.3114 28.2595 34.141 26.1764 34.1311 23.4526C34.1239 22.8048 34.2542 22.1622 34.5142 21.5632C34.7742 20.9642 35.1585 20.4211 35.6444 19.9661C36.1302 19.5112 36.7076 19.1537 37.3421 18.9151C37.9766 18.6765 38.6552 18.5617 39.3375 18.5773C42.1221 18.6497 44.2981 20.8347 44.2614 23.5223C44.2638 24.1549 44.1328 24.7815 43.8761 25.3653C43.6194 25.9491 43.2422 26.4782 42.7668 26.9214C42.2913 27.3646 41.7272 27.713 41.1077 27.9461C40.4881 28.1791 39.8258 28.292 39.1595 28.2783ZM42.6135 23.4245C42.605 21.5746 41.1068 20.1363 39.1892 20.1403C37.2716 20.1443 35.7804 21.576 35.7776 23.4298C35.7776 25.3065 37.225 26.6764 39.2005 26.6737C41.176 26.6711 42.6205 25.2904 42.6135 23.4178V23.4245Z" fill="#0E8C59"/>
</svg>
