<svg width="59" height="56" viewBox="0 0 59 56" fill="none" xmlns="http://www.w3.org/2000/svg">
<path d="M26.5756 40.5435C28.9942 41.2365 30.2448 39.4741 31.7947 38.407C32.0015 38.2638 32.0039 37.7788 32.0112 37.4508C32.0339 36.142 32.0339 34.8331 32.0112 33.5243C32.0112 32.7066 32.3835 32.3186 33.2497 32.3301C34.3811 32.3463 35.5125 32.344 36.6415 32.3301C37.5247 32.3301 37.858 32.7528 37.858 33.5566C37.841 35.8271 37.8994 38.0976 37.8118 40.3657C37.7948 40.8415 37.3836 41.4305 36.9675 41.7516C34.9407 43.276 32.8312 44.6988 30.802 46.2255C30.4074 46.5633 30.1673 47.034 30.1329 47.5374C30.0696 50.1105 30.1012 52.6881 30.1012 55.3513H28.1377C28.1377 53.0715 28.2764 50.7664 28.0964 48.4821C27.9358 46.4634 28.5586 45.1006 30.4248 44.0428C32.1159 43.0842 33.6366 41.8462 35.1719 40.659C35.5701 40.3232 35.8203 39.8572 35.8726 39.354C35.9553 37.6749 35.9042 35.9887 35.9042 34.2518H33.9821C33.9821 35.6169 34.0551 36.9589 33.948 38.2846C33.9042 38.8205 33.4614 39.3263 33.1986 39.8391C33.167 39.9014 33.0721 39.9315 33.0137 39.9846C30.8604 42.0195 28.3494 42.8648 25.2642 42.56C22.8676 42.329 20.4198 42.5599 18.0013 42.486C17.3809 42.4652 16.758 42.0749 16.1667 41.7931C13.2786 40.4396 11.9599 38.31 12.629 35.2081C12.6611 34.89 12.6611 34.5698 12.629 34.2518H10.7044C10.7044 36.1204 10.6752 37.9936 10.7384 39.8622C10.7384 40.1486 11.1594 40.4742 11.4684 40.6914C13.4903 42.1604 15.5195 43.6224 17.5755 45.0475C17.8771 45.2336 18.1204 45.4933 18.28 45.7992C18.4397 46.1052 18.5098 46.4463 18.4831 46.7867C18.4393 49.6277 18.466 52.4664 18.466 55.372H16.5195C16.5195 54.2634 16.5195 53.127 16.5195 51.9883C16.5195 50.5262 16.5828 49.0595 16.4733 47.5998C16.4114 47.0288 16.1278 46.5002 15.6777 46.1169C13.6922 44.604 11.5949 43.2205 9.6192 41.6984C9.13738 41.2789 8.84238 40.7006 8.79438 40.0816C8.69705 37.9705 8.77978 35.8502 8.74085 33.7345C8.72138 32.6928 9.16421 32.2609 10.2591 32.314C11.264 32.3648 12.2762 32.344 13.2859 32.314C14.2056 32.2886 14.6193 32.6697 14.6022 33.552C14.573 34.8986 14.5487 36.2498 14.6168 37.5917C14.6474 38.0266 14.8562 38.4329 15.1984 38.7235C16.6169 39.7144 17.8286 41.2642 19.6923 40.6105C19.2909 39.3563 18.668 38.0698 18.5098 36.7417C18.3371 35.2889 19.213 34.0925 20.4393 33.2125C21.3702 32.5501 22.5231 32.2317 23.683 32.3167C24.843 32.4017 25.9307 32.8843 26.7435 33.6744C28.656 35.5153 28.6122 37.8296 26.5756 40.5435ZM23.3201 39.7074C23.701 39.705 24.0776 39.6314 24.4285 39.4908C24.7794 39.3502 25.0977 39.1453 25.3652 38.888C25.6327 38.6306 25.8442 38.3257 25.9876 37.9908C26.131 37.6558 26.2035 37.2973 26.2009 36.9357C26.1984 36.5742 26.1208 36.2167 25.9727 35.8836C25.8246 35.5505 25.6088 35.2483 25.3377 34.9943C25.0666 34.7404 24.7454 34.5396 24.3926 34.4035C24.0397 34.2674 23.6621 34.1986 23.2812 34.201C22.5077 34.2285 21.7755 34.5397 21.2387 35.0691C20.7019 35.5985 20.4023 36.3049 20.4028 37.0397C20.4388 37.7537 20.7609 38.4277 21.3032 38.9237C21.8456 39.4196 22.5671 39.7 23.3201 39.7074Z" fill="#0E8C59"/>
<path d="M2.07141 34.2635H6.88899L6.77221 36.0235C4.76245 36.0235 2.84028 36.0628 0.932714 35.9819C0.623708 35.9681 0.266034 35.4415 0.0689511 35.0835C-0.0648707 34.8525 0.0373193 34.4806 0.0373193 34.1596V6.46586C0.0373193 4.66196 0.083554 4.64348 1.91326 4.61808C9.04107 4.50073 16.1046 5.9149 22.5753 8.7548C23.0831 8.9211 23.6365 8.91128 24.1374 8.72709C26.6265 7.85863 29.0888 6.91857 31.6801 5.95541L32.2981 7.84246C30.6655 8.39217 29.0791 8.90262 27.5097 9.45927C24.2834 10.598 24.2785 10.6141 24.2761 13.8478C24.2761 18.9661 24.2761 24.0837 24.2761 29.2006V30.4224H22.3101C22.3101 29.3114 22.3101 28.2074 22.3101 27.1033C22.3101 21.9873 22.3296 16.8689 22.2955 11.7505C22.2955 11.344 22.0522 10.7112 21.7213 10.5633C15.5363 7.77317 9.00094 6.47741 2.06654 6.49358L2.07141 34.2635Z" fill="#0E8C59"/>
<path d="M37.7936 12.2402C37.835 8.80103 39.925 6.02472 43.1465 4.98534C44.6652 4.49268 46.3088 4.46626 47.8443 4.90984C49.3797 5.35341 50.7291 6.24449 51.7013 7.45676C53.8303 10.113 54.0469 13.6676 52.0128 16.3816C50.5018 18.398 49.6575 20.5067 49.6672 23.0036C49.6672 25.1655 47.7207 26.8123 45.4725 26.773C44.4075 26.7657 43.3889 26.3582 42.6397 25.6396C41.8905 24.921 41.4717 23.9499 41.4749 22.9389C41.5091 20.619 40.7236 18.3551 39.2437 16.5086C38.2616 15.2845 37.7499 13.7784 37.7936 12.2402ZM46.7621 19.3449C47.6453 19.5759 48.1757 19.3218 48.5383 18.3933C48.9008 17.4648 49.531 16.5571 50.1295 15.6979C51.0566 14.3675 51.5894 12.9539 51.3266 11.351C50.9081 8.85183 49.1879 7.11724 46.7037 6.6114C45.5714 6.38238 44.3924 6.48778 43.325 6.91347C42.2576 7.33916 41.3531 8.06475 40.7328 8.99274C39.3873 10.9699 39.4919 13.4898 40.9177 15.5039C41.5674 16.4278 42.2389 17.3678 42.6209 18.3933C43.0029 19.4189 43.5552 19.5852 44.4433 19.3172C45.3484 16.7442 43.9567 15.065 42.0102 13.7115L43.5041 12.1109L45.4823 14.5754L47.6137 12.2864L49.1831 13.7392C47.1271 15.0581 45.8959 16.7673 46.7621 19.3449ZM43.4968 21.3036C43.4093 22.5994 43.1781 23.8951 44.5041 24.4818C44.8761 24.6201 45.2743 24.6835 45.6735 24.668C46.0727 24.6525 46.4641 24.5584 46.8229 24.3917C48.0395 23.7219 47.7475 22.4492 47.728 21.3036H43.4968Z" fill="#0E8C59"/>
<path d="M20.7742 14.5058C20.4992 15.1387 20.2876 15.626 20.0442 16.215C14.9365 14.2332 9.50007 13.1236 3.98564 12.9375C3.95644 12.5818 3.91751 12.2884 3.91265 11.9928C3.90778 11.6972 3.93698 11.4708 3.95644 11.0828C9.74049 11.1995 15.4482 12.3612 20.7742 14.5058Z" fill="#0E8C59"/>
<path d="M39.8452 36.0236C39.8087 35.594 39.7625 35.0697 39.6992 34.3167L44.6068 34.1134V28.6948H46.5533C46.5533 30.8567 46.585 33.0279 46.5168 35.1944C46.5168 35.4785 45.9913 35.9774 45.6944 35.9866C43.7796 36.0605 41.8623 36.0236 39.8452 36.0236Z" fill="#0E8C59"/>
<path d="M15.8488 18.3839C15.6274 19.0629 15.4643 19.5641 15.3305 19.9707L3.98242 18.2799V16.6423C8.00302 16.7065 11.9955 17.2925 15.8488 18.3839Z" fill="#0E8C59"/>
<path d="M3.94922 23.9941V22.1094L9.86657 22.5575L9.62326 24.4607L3.94922 23.9941Z" fill="#0E8C59"/>
<path d="M55.4428 14.1133L58.1922 15.4344C57.9051 15.9957 57.6447 16.4969 57.326 17.1182L54.5547 15.8017L55.4428 14.1133Z" fill="#0E8C59"/>
<path d="M53.8496 6.9484L56.6161 5.63647L57.509 7.28794L54.7499 8.62758C54.4506 8.06401 54.1829 7.56972 53.8496 6.9484Z" fill="#0E8C59"/>
<path d="M34.5697 5.625L37.3289 6.93693L36.4603 8.62534L33.6816 7.29724C33.9882 6.74291 34.2315 6.25325 34.5697 5.625Z" fill="#0E8C59"/>
<path d="M33.002 15.4392L35.7635 14.1111L36.6419 15.7856L33.8827 17.1253C33.5883 16.5617 33.3158 16.0374 33.002 15.4392Z" fill="#0E8C59"/>
<path d="M44.6758 2.68928V0.0654297H46.5104V2.68928H44.6758Z" fill="#0E8C59"/>
</svg>
