<svg width="54" height="51" viewBox="0 0 54 51" fill="none" xmlns="http://www.w3.org/2000/svg">
<path d="M17.8368 27.2808C18.9376 23.7226 17.025 20.4231 13.8546 17.4789C10.8054 14.6522 10.1229 10.6839 8.63955 7.10744C8.27353 6.22966 8.61202 5.01748 8.85971 4.00124C9.16243 2.77077 10.1201 2.04451 11.4796 1.95568C12.0906 1.8907 12.7074 2.01347 13.2394 2.30596C13.7715 2.59845 14.1906 3.04523 14.4353 3.58063C15.3214 5.27089 16.1058 7.01339 17.0745 8.65924C17.5983 9.52081 18.2698 10.2934 19.0614 10.9451C20.1623 11.8595 21.4447 12.5466 22.5317 13.4609C23.7454 14.4772 25.0884 14.6705 26.6598 14.7672C29.0348 14.9317 30.7163 14.0879 32.5188 12.7112C35.4002 10.5115 37.6403 8.03486 38.7797 4.64912C39.1275 3.80323 39.7616 3.09104 40.5822 2.62447C41.6473 2.00793 42.8554 2.2535 43.8214 3.06336C44.8479 3.94376 44.9304 5.04883 44.5506 6.24272C43.1251 10.663 41.4656 14.9892 38.3834 18.6545C36.7184 20.6347 36.0992 22.7952 36.2918 25.3162C36.4707 27.6674 36.3661 30.0187 36.2918 32.3699C36.2781 32.7931 35.7965 33.2058 35.5295 33.6238C35.2543 33.2085 34.7617 32.8009 34.7562 32.3829C34.692 28.9711 34.692 25.5583 34.7562 22.1447C34.8096 21.4632 35.0301 20.803 35.4002 20.2167C35.9729 19.2002 36.629 18.2279 37.3624 17.3091C40.0786 13.9599 41.5399 10.07 42.8664 6.10948C43.1416 5.27089 43.3783 4.40878 42.2555 4.01952C41.1877 3.64855 40.5822 4.28077 40.3125 5.17423C39.1347 9.07723 36.2451 11.6427 33.1876 14.3178C30.3778 16.7631 27.3533 16.3163 24.2105 16.238C23.8087 16.238 23.4041 15.9401 23.0271 15.7416C22.7326 15.5849 22.4932 15.3341 22.2015 15.1773C17.8781 12.8653 14.9609 9.45604 13.318 5.02793C13.0235 4.24419 12.6327 3.40298 11.4934 3.58586C10.288 3.77918 10.3293 4.78758 10.1614 5.63141C10.0981 5.8556 10.0981 6.09167 10.1614 6.31587C11.4328 9.28362 12.5061 12.3585 14.0913 15.1721C15.1701 17.0844 17.0497 18.5683 18.423 20.363C19.0185 21.1242 19.3744 22.03 19.4495 22.9755C19.5678 26.3717 19.5018 29.7992 19.4908 33.2137C19.4908 33.8433 19.6008 34.695 18.5936 34.5643C18.2854 34.5251 17.9056 33.6918 17.8808 33.2058C17.7845 31.4895 17.8368 29.7809 17.8368 27.2808Z" fill="#0E8C59"/>
<path d="M22.3218 39.1437C20.3651 35.7318 20.6239 33.1168 23.1089 31.2201C24.1335 30.4682 25.3959 30.0673 26.6909 30.0824C27.9859 30.0976 29.2374 30.528 30.2421 31.3037C32.6309 33.2056 32.8593 35.8128 31.1228 38.8015C32.5648 39.8099 34.117 40.6302 35.3086 41.798C36.6351 43.1042 36.5443 44.912 36.5277 46.6388C36.4975 50.1996 36.5277 50.1996 32.7355 50.1996C27.98 50.1996 23.2245 50.1656 18.469 50.2205C17.1646 50.2362 16.5426 49.8757 16.7105 48.572C16.7477 47.9281 16.7477 47.2828 16.7105 46.6388C16.7215 42.1376 17.9269 40.5231 22.3218 39.1437ZM34.8325 48.606C34.8325 47.4017 34.8518 46.3462 34.8325 45.2908C34.7775 42.7489 32.9749 40.9097 30.3054 40.8209C27.8286 40.7373 25.3518 40.7477 22.875 40.8209C20.8357 40.881 19.0662 42.0644 18.6672 43.8618C18.3287 45.3849 18.436 46.9967 18.3452 48.606H34.8325ZM30.6522 35.3792C30.6263 34.3669 30.1778 33.4058 29.4055 32.7074C28.6331 32.009 27.6002 31.6305 26.5338 31.6551C25.4675 31.6797 24.4551 32.1054 23.7194 32.8386C22.9837 33.5718 22.5849 34.5524 22.6108 35.5646C22.7016 37.6154 24.6033 39.324 26.7388 39.256C28.8744 39.1881 30.699 37.3881 30.6522 35.3792Z" fill="#0E8C59"/>
<path d="M14.289 39.1806C14.9302 39.3739 15.5357 39.4575 16.0145 39.7345C16.2897 39.9017 16.3888 40.3719 16.5649 40.7063C16.2072 40.863 15.8466 41.1687 15.4944 41.1582C12.4672 41.072 9.41519 40.8212 6.37421 40.8343C3.69375 40.8343 1.87741 42.7336 1.80586 45.2755C1.77558 46.3205 1.80586 47.3889 1.80586 48.6717H3.4158C6.765 48.6717 10.1142 48.6717 13.4634 48.6717C14.0991 48.6717 15.0238 48.4757 14.9495 49.4554C14.9275 49.7349 14.0441 50.1608 13.5515 50.1686C9.57205 50.2287 5.59263 50.1686 1.61321 50.2182C0.449108 50.2313 0.041823 49.782 0.113375 48.7317C0.168416 47.948 0.127132 47.1643 0.127132 46.3805C0.127132 42.1562 1.53891 40.3432 5.74124 39.1728C3.79006 35.6303 4.03224 33.1249 6.50355 31.244C7.53948 30.4662 8.82813 30.0547 10.1486 30.08C11.4691 30.1052 12.7393 30.5657 13.7414 31.3824C16.0338 33.2895 16.2457 35.9412 14.289 39.1806ZM10.0179 31.628C9.22201 31.6301 8.44477 31.8568 7.78484 32.2791C7.12492 32.7014 6.61207 33.3003 6.31146 33.9999C6.01085 34.6994 5.93602 35.468 6.09648 36.208C6.25693 36.948 6.64543 37.626 7.21263 38.156C7.77984 38.686 8.50018 39.044 9.28216 39.1846C10.0641 39.3251 10.8725 39.2419 11.6045 38.9455C12.3366 38.6491 12.9593 38.1529 13.3937 37.5198C13.8281 36.8867 14.0544 36.1454 14.0441 35.3899C14.0177 34.3897 13.5831 33.4383 12.832 32.7365C12.0808 32.0346 11.0718 31.6372 10.0179 31.628Z" fill="#0E8C59"/>
<path d="M51.4104 48.6664C51.4104 47.2322 51.493 45.986 51.3939 44.7477C51.3212 43.6968 50.8332 42.7106 50.0275 41.9865C49.2218 41.2624 48.1579 40.8537 47.0485 40.8421C43.9607 40.8108 40.873 41.0616 37.7824 41.1478C37.4219 41.1478 37.0559 40.8865 36.6816 40.735C36.8853 40.3771 37.0009 39.8834 37.3174 39.69C37.7742 39.4079 38.3796 39.3426 38.9273 39.1806C36.9844 35.7844 37.2045 33.2085 39.5768 31.3119C40.5983 30.5177 41.878 30.0837 43.1984 30.0837C44.5188 30.0837 45.7985 30.5177 46.8201 31.3119C49.2198 33.2085 49.4455 35.787 47.6952 38.8149C49.14 39.8128 50.7224 40.6227 51.892 41.7904C53.1937 43.081 53.1387 44.9019 53.1222 46.6339C53.0892 50.2078 53.1222 50.2078 49.3299 50.2078C46.1266 50.2078 42.9232 50.2365 39.7199 50.1738C39.2162 50.1738 38.3273 49.7741 38.2943 49.4867C38.176 48.5044 39.1034 48.6847 39.7419 48.6821C43.5754 48.6586 47.4062 48.6664 51.4104 48.6664ZM43.2314 39.2459C44.0271 39.2422 44.8036 39.014 45.4623 38.5903C46.121 38.1666 46.6322 37.5666 46.9308 36.8665C47.2294 36.1663 47.3019 35.3978 47.1393 34.6584C46.9766 33.919 46.5861 33.2423 46.0173 32.7141C45.4485 32.1859 44.7271 31.8302 43.9449 31.6922C43.1626 31.5542 42.3548 31.64 41.624 31.9389C40.8933 32.2377 40.2726 32.7361 39.841 33.3706C39.4093 34.0051 39.1861 34.7471 39.1997 35.5023C39.2324 36.4998 39.6703 37.4466 40.4219 38.1444C41.1734 38.8422 42.1802 39.237 43.2314 39.2459Z" fill="#0E8C59"/>
<path d="M31.6053 7.10737C31.6053 7.75265 31.641 8.39792 31.6053 9.04059C31.515 10.2322 30.9535 11.3473 30.0333 12.1623C29.1131 12.9773 27.9023 13.4319 26.6439 13.4349C25.3854 13.4378 24.1722 12.989 23.2478 12.1784C22.3233 11.3677 21.756 10.2553 21.6595 9.0641C21.5797 7.73282 21.5797 6.39832 21.6595 5.06704C21.7725 3.89403 22.3424 2.80322 23.2577 2.00795C24.1731 1.21267 25.368 0.77013 26.6088 0.766864C27.8497 0.763597 29.0472 1.19984 29.9671 1.99029C30.8871 2.78073 31.4634 3.86852 31.5832 5.04092C31.6383 5.72538 31.5832 6.41768 31.5832 7.10737H31.6053ZM29.9018 7.12305C29.9431 6.43479 29.9431 5.74485 29.9018 5.05659C29.8055 4.29507 29.4185 3.59347 28.8139 3.08459C28.2094 2.57572 27.4293 2.29488 26.6213 2.29523C25.8119 2.28416 25.0276 2.56167 24.4233 3.07294C23.819 3.58421 23.4387 4.29204 23.3575 5.05659C23.2336 6.43085 23.2336 7.81263 23.3575 9.18688C23.5088 10.7726 25.0307 11.9169 26.6819 11.8803C27.4638 11.8629 28.2139 11.5827 28.7985 11.0894C29.3831 10.5962 29.7643 9.92199 29.8742 9.18688C29.9289 8.50016 29.9381 7.81086 29.9018 7.12305Z" fill="#0E8C59"/>
</svg>
