<svg width="52" height="50" viewBox="0 0 52 50" fill="none" xmlns="http://www.w3.org/2000/svg">
<path d="M27.8925 6.59522C29.8492 4.72993 31.8389 2.89077 33.7543 0.983674C34.5992 0.139852 35.1992 0.0902139 36.0991 0.957548C40.9371 5.61468 45.8091 10.2387 50.715 14.8297C51.6397 15.697 51.6893 16.2691 50.7398 17.1548C46.2182 21.3739 41.7517 25.6505 37.2714 29.9114C36.9302 30.2327 36.6109 30.5775 36.0633 31.134H42.1755C44.8202 31.134 47.4677 31.1627 50.1151 31.1209C51.1719 31.1026 51.5874 31.4736 51.5819 32.4846C51.5544 37.551 51.5544 42.6183 51.5819 47.6865C51.5819 48.7054 51.1113 49.0502 50.0848 49.0502C34.6625 49.0345 19.2411 49.0284 3.82065 49.0319C1.58602 49.0319 0.154962 47.6421 0.15221 45.5051C0.139367 32.1659 0.139367 18.8259 0.15221 5.48493C0.15221 3.2565 1.5117 1.86668 3.86192 1.851C10.5695 1.80224 17.2762 1.80224 23.9819 1.851C26.2083 1.86407 27.4825 3.18335 27.5595 5.30467C27.5761 5.68608 27.5595 6.06489 27.5595 6.44631L27.8925 6.59522ZM2.04285 10.0959V40.7504H25.7597V10.0959H2.04285ZM27.5733 36.3014L28.0081 36.5914C28.8888 35.6692 29.7336 34.7104 30.6556 33.8274C35.2212 29.4673 39.8143 25.1332 44.3661 20.7652C44.6716 20.47 44.9936 19.7881 44.8422 19.5295C43.3424 16.9588 43.535 14.4848 45.0789 12.1388L39.0245 6.39145C36.055 7.75776 34.1864 8.05035 32.1224 6.92961C30.8372 6.2347 30.174 6.56909 29.4117 7.47561C29.0126 7.94324 28.4705 8.30376 28.0824 8.78184C27.8026 9.10582 27.6302 9.50129 27.5871 9.91826C27.5403 11.9952 27.5293 14.0747 27.6008 16.1516C27.6452 16.3521 27.74 16.5394 27.877 16.6977C28.014 16.856 28.1893 16.9805 28.3879 17.0607C31.8142 17.9698 33.9332 20.3576 33.958 23.4377C33.9828 26.5178 31.8389 28.963 28.454 29.8539C28.1017 29.9479 27.6283 30.4234 27.6283 30.7369C27.5348 32.5917 27.5733 34.4492 27.5733 36.3014ZM27.3642 43.7835L27.7907 44.1832H38.7272C38.6942 44.7736 38.6694 45.2282 38.6419 45.7376C35.3395 45.7376 32.1995 45.7951 29.0566 45.7115C27.821 45.6775 27.2899 46.0406 27.4054 47.2215H49.6968V39.4207C49.5548 39.3542 49.4039 39.3067 49.2482 39.2796C42.3131 39.2692 35.379 39.2692 28.4457 39.2796C28.1705 39.2796 27.6614 39.5644 27.6586 39.7211C27.6586 40.0712 27.9586 40.4108 28.0384 40.7661C28.165 41.32 28.3549 41.9156 28.2448 42.4433C28.1265 42.9344 27.6669 43.3498 27.3642 43.7835ZM25.7542 42.6079H1.95478C1.95478 43.4935 1.95478 44.3034 1.95478 45.1158C1.95478 46.9263 2.36483 47.3051 4.2995 47.3077C10.0402 47.3077 15.7809 47.292 21.5189 47.3077C25.6854 47.3417 26.156 47.7779 25.7542 42.6183V42.6079ZM25.8643 8.28025C25.8643 7.14384 25.9221 6.14849 25.8478 5.1636C25.7735 4.1787 25.1928 3.55693 24.0838 3.55693C17.2863 3.55693 10.486 3.52297 3.68855 3.60657C3.13814 3.60657 2.20246 4.30932 2.08962 4.81352C1.8447 5.91075 2.01533 7.0942 2.01533 8.28025H25.8643ZM27.6311 28.2133C30.5593 27.7848 32.3095 25.7706 32.1774 23.1608C32.1253 22.0274 31.6311 20.9528 30.7909 20.146C29.9506 19.3392 28.8244 18.8578 27.6311 18.7954V28.2133ZM49.7023 36.0506H48.1557C42.8222 36.0506 37.4888 36.0951 32.1554 36.0193C30.8262 36.001 30.0859 36.5209 29.4034 37.5476H49.672L49.7023 36.0506ZM32.9398 34.248H49.6472V32.7589C44.9881 32.7589 40.4445 32.7955 35.8872 32.7328C34.6295 32.7171 33.658 32.9705 32.9287 34.2402L32.9398 34.248ZM32.183 5.04604C34.1617 6.2556 36.1238 6.21381 37.6017 5.03298L34.8304 2.4388C33.9883 3.24605 33.1131 4.11078 32.1719 5.0382L32.183 5.04604ZM49.2455 16.0889L46.5898 13.3432C45.2523 15.0674 45.2468 16.8961 46.5622 18.6752L49.2455 16.0889Z" fill="#0E8C59"/>
<path d="M10.7906 26.6377C11.341 26.9199 11.8914 27.3144 12.4776 27.458C13.2775 27.6744 14.114 27.7409 14.9407 27.654C15.1994 27.6148 15.4911 26.7422 15.4911 26.2511C15.4911 25.1721 14.5499 25.2949 13.7848 25.2662C11.3025 25.1704 10.2072 23.9782 10.4989 21.6897C10.6695 20.3417 11.564 19.6572 12.918 19.3202L13.0886 17.9827H14.6269L14.3875 18.2909C14.9527 18.754 15.4928 19.2441 16.0057 19.7591C16.5561 20.3704 17.0295 21.0654 17.5358 21.7106L17.0872 22.2331C16.4901 21.9458 15.9204 21.567 15.2874 21.3945C14.5399 21.1579 13.7508 21.0629 12.9647 21.115C12.6565 21.1516 12.2492 21.8648 12.2107 22.2958C12.1006 23.5237 13.0363 23.6177 14.0325 23.6177C16.3552 23.6177 17.723 24.9762 17.2799 27.0531C17.112 27.8368 16.3359 28.5318 15.7773 29.2214C15.3669 29.6742 14.9296 30.1042 14.4673 30.5094L14.6792 30.8595L13.2454 30.9352L13.4684 30.6217C12.8932 30.0992 12.274 29.6316 11.7538 29.0725C11.2337 28.5135 10.7796 27.8525 10.3008 27.2438L10.7906 26.6377Z" fill="#0E8C59"/>
<path d="M32.5 17.0579L33.81 15.9424L34.9108 17.1337L33.6146 18.3171L32.5 17.0579Z" fill="#0E8C59"/>
<path d="M44.5921 45.7481H41.5236C40.7365 45.7481 40.3567 45.4006 40.3787 44.6352C40.4035 43.7731 40.409 42.9083 40.3787 42.0462C40.343 41.1371 40.8466 40.8158 41.719 40.8184C43.4005 40.8184 45.0819 40.834 46.7634 40.8184C47.7542 40.8184 48.1394 41.2468 48.1202 42.1664C48.0459 46.4378 48.6761 45.6775 44.5921 45.7481ZM46.3534 42.6471H42.2253V44.0447H46.3534V42.6471Z" fill="#0E8C59"/>
<path d="M31.7838 42.4981H30.2207V40.834H31.7838V42.4981Z" fill="#0E8C59"/>
<path d="M33.5957 42.4274V40.8442H35.2029V42.4274H33.5957Z" fill="#0E8C59"/>
<path d="M38.6224 42.477H37.0234V40.8442H38.6224V42.477Z" fill="#0E8C59"/>
<path d="M14.6808 45.7061H13.0626L12.9883 44.2327H14.6808V45.7061Z" fill="#0E8C59"/>
<path d="M10.4531 5.18701H17.2479V6.66305H10.5219L10.4531 5.18701Z" fill="#0E8C59"/>
</svg>
