<svg width="59" height="62" viewBox="0 0 59 62" fill="none" xmlns="http://www.w3.org/2000/svg">
<path d="M4.43832 61.1334C3.24477 60.817 2.15124 60.3422 1.30776 59.4292C-0.419211 57.5508 -0.45255 54.6819 1.30776 52.8273C2.14124 51.949 3.04974 51.1309 3.93989 50.2954C4.38664 49.8824 4.94007 49.8887 5.32347 50.2653C5.68187 50.6151 5.69021 51.1404 5.28513 51.5392C4.50833 52.3083 3.69652 53.0472 2.91138 53.8084C1.93621 54.7578 1.65949 55.894 2.0779 57.1315C2.4963 58.3689 3.44481 59.0747 4.78838 59.2962C5.69687 59.445 6.62204 59.3073 7.24715 58.7123C9.64757 56.4479 11.973 54.1154 14.2934 51.8399L9.54422 47.3426C9.19083 47.7271 8.79076 48.1987 8.34901 48.6323C7.81392 49.1576 7.24548 49.2004 6.83041 48.7905C6.41534 48.3807 6.47535 47.8822 7.03378 47.3505C8.56072 45.8978 10.0893 44.4462 11.6196 42.9957C12.6198 42.0462 13.1715 41.9877 14.3267 42.6792L18.4308 38.7912C17.7057 37.4983 16.8855 36.2371 16.2637 34.8937C14.4165 30.8794 13.9556 26.4129 14.9471 22.1346C15.9386 17.8563 18.3316 13.9859 21.7831 11.0782C22.3698 10.5829 22.8999 10.5417 23.31 10.9595C23.7201 11.3772 23.6084 11.9216 23.0199 12.4375C18.3158 16.5723 16.0404 21.6709 16.3988 27.7585C16.6529 32.1098 18.4849 36.2437 21.584 39.4588C24.6832 42.6739 28.8585 44.7722 33.4018 45.3978C44.107 46.9106 54.1355 40.2185 56.0391 30.0783C57.3444 23.1378 55.1206 17.1942 49.6513 12.3821C49.5146 12.2618 49.3646 12.1526 49.2346 12.026C48.8079 11.613 48.7728 11.1494 49.1279 10.7601C49.2038 10.6628 49.3013 10.5826 49.4135 10.5252C49.5257 10.4677 49.6498 10.4344 49.7771 10.4276C49.9044 10.4208 50.0317 10.4407 50.15 10.4858C50.2682 10.531 50.3746 10.6003 50.4615 10.6889C51.4933 11.6304 52.5735 12.5467 53.462 13.6021C57.186 18.0076 58.7379 23.0745 58.1912 28.6795C57.2827 37.9208 49.7797 45.5956 40.148 47.1131C34.327 48.0341 28.9193 46.9343 23.9968 43.8027C23.8934 43.7378 23.7901 43.6714 23.6851 43.6081C23.6684 43.597 23.6451 43.597 23.6701 43.6081L19.5027 47.629C19.4776 47.5895 19.5343 47.6844 19.596 47.7762C20.0844 48.4994 20.0461 49.2146 19.4076 49.8238C15.8981 53.1617 12.3814 56.4948 8.85743 59.8232C8.11563 60.5258 7.15546 60.8423 6.19029 61.1334H4.43832ZM13.1199 44.2458L11.2062 46.0703L15.822 50.4442L17.7107 48.6449L13.1199 44.2458ZM17.9657 46.1305C19.2993 44.8645 20.6245 43.5986 21.8797 42.4086L19.731 40.3293L15.7953 44.0622L17.9657 46.1305Z" fill="#0E8C59"/>
<path d="M53.8503 26.6714C53.8337 30.5501 52.3904 34.3016 49.7699 37.2775C47.1493 40.2535 43.516 42.2671 39.4977 42.9704C30.0377 44.6461 20.8011 38.5934 19.1708 29.5498C18.0523 23.3435 20.1243 18.1279 25.0768 13.9503C25.2203 13.8435 25.3338 13.7047 25.4071 13.5462C25.4804 13.3877 25.5112 13.2145 25.4969 13.042C25.4319 10.8978 25.6319 8.79473 26.5238 6.78505C28.3324 2.7024 32.7432 0.10722 37.239 0.509156C41.8065 0.919004 45.4921 3.92719 46.7407 8.23772C47.2008 9.83597 47.2874 11.4627 47.2408 13.1037C47.2264 13.2572 47.2536 13.4116 47.3198 13.5523C47.3861 13.693 47.4891 13.8153 47.6192 13.9075C51.6499 17.161 53.8553 21.6836 53.8503 26.6714ZM36.2455 41.4481C41.1797 41.342 45.1687 39.5808 48.3393 36.1248C49.0144 35.389 49.4395 34.6341 49.2895 33.6261C49.2161 33.1419 49.2745 32.6403 49.2511 32.1481C49.1711 30.4914 48.4176 29.1827 46.9007 28.3503C46.2089 27.9658 45.4271 27.7284 44.692 27.412C44.2352 27.2157 43.8585 27.2806 43.4167 27.5306C41.6414 28.5513 39.8328 29.5213 38.0558 30.5372C36.9306 31.1829 35.8454 31.2082 34.7219 30.5594C33.3183 29.7539 31.7914 29.1051 30.5045 28.1604C29.0042 27.0527 27.6706 27.3313 26.2454 28.1066C26.012 28.2348 25.7786 28.3646 25.5569 28.5102C24.9712 28.8729 24.4826 29.3603 24.1299 29.9335C23.7772 30.5068 23.57 31.1502 23.5249 31.8127C23.4494 32.6377 23.4238 33.4661 23.4482 34.2939C23.4562 34.6774 23.5807 35.0504 23.8066 35.3684C26.9422 39.326 31.1629 41.3072 36.2455 41.4481ZM45.3271 12.8062C44.0769 12.5562 42.9567 12.015 42.1182 11.0655C41.4631 10.3281 40.7546 10.2205 39.7994 10.4927C38.4775 10.8693 37.1323 11.3583 35.7221 11.1256C34.6622 10.9424 33.6138 10.7042 32.5815 10.412C31.8797 10.2189 31.3446 10.3344 30.8529 10.8535C29.991 11.7618 28.9825 12.466 27.6856 12.735C27.6152 12.7584 27.552 12.7981 27.502 12.8507C27.4519 12.9032 27.4164 12.9668 27.3989 13.0356C27.3989 13.9218 27.2872 14.8348 27.4756 15.6878C28.2407 19.1691 30.5661 21.4842 33.8717 22.978C35.0129 23.5261 36.3224 23.6708 37.5657 23.3863C42.4299 22.2406 45.7605 17.7275 45.3271 12.8078V12.8062ZM45.0954 10.988C45.1321 6.7629 42.0232 2.31628 36.3755 2.30679C30.8862 2.2973 27.6206 6.55718 27.4856 10.8978C28.3808 10.7205 28.9609 10.124 29.546 9.5448C30.4978 8.59534 31.6213 8.29785 32.9466 8.65548C33.385 8.77416 33.8251 8.88334 34.2668 8.9862C35.3103 9.22831 36.3422 9.57012 37.434 9.24097C38.0058 9.06849 38.6009 8.98145 39.1727 8.79315C40.893 8.22031 42.3232 8.53996 43.5434 9.8692C43.9668 10.3249 44.5736 10.624 45.0954 10.9896V10.988ZM41.4614 23.7217C41.6981 24.4243 42.0898 24.8389 42.85 25.0526C44.3953 25.4877 45.9472 25.945 47.4141 26.5701C49.2711 27.3613 50.453 28.7855 50.9497 30.6844C50.9981 30.8664 51.0398 31.0499 51.1081 31.3253C53.2235 26.6112 50.9714 18.0709 47.1591 16.0486C46.3956 19.3432 44.3369 21.7785 41.4614 23.7233V23.7217ZM31.2729 23.7217C28.3758 21.7833 26.3304 19.3226 25.5486 15.9995C20.9844 19.9303 19.7142 26.4862 21.6346 31.3728C22.1346 28.3313 24.2167 26.7552 27.0238 25.8454C27.9415 25.5362 28.8764 25.2752 29.8243 25.0636C30.6228 24.8975 31.0296 24.4449 31.2729 23.7217ZM31.3996 26.6128C32.8582 27.4278 34.3601 28.3013 35.9004 29.0988C36.1721 29.2381 36.6822 29.1653 36.9839 29.0134C38.0658 28.4722 39.106 27.855 40.1612 27.2727C40.5829 27.0369 40.9947 26.798 41.328 26.6144L39.6077 24.6459C38.5946 25.1045 37.4863 25.3425 36.3638 25.3425C35.2414 25.3425 34.1331 25.1045 33.1199 24.6459L31.3996 26.6128Z" fill="#0E8C59"/>
</svg>
