<svg width="44" height="52" viewBox="0 0 44 52" fill="none" xmlns="http://www.w3.org/2000/svg">
<g clip-path="url(#clip0_332_6711)">
<path d="M43.2489 41.2313H38.0713C37.7917 41.2313 37.6985 41.3141 37.6985 41.5937C37.6985 42.3393 37.6985 43.0745 37.6985 43.8615H38.8169C39.0262 43.8534 39.2342 43.8984 39.4215 43.9923C39.6088 44.0862 39.7694 44.2259 39.8882 44.3984C40.007 44.571 40.0803 44.7708 40.1012 44.9793C40.1221 45.1877 40.0899 45.3981 40.0077 45.5908L38.3095 50.3749C38.2377 50.6839 38.0541 50.9554 37.794 51.137C37.534 51.3187 37.2159 51.3976 36.9011 51.3587C27.4917 51.3587 18.0787 51.3587 8.66237 51.3587C8.37302 51.3825 8.0843 51.3059 7.84478 51.1419C7.60526 50.9778 7.42957 50.7362 7.34725 50.4578C6.87091 49.1737 6.41528 47.8793 5.97001 46.5849C5.77281 46.0931 5.62369 45.5833 5.52473 45.0627C5.52468 44.7422 5.65057 44.4345 5.87527 44.2059C6.09996 43.9773 6.40547 43.8462 6.72594 43.8408C7.11944 43.8408 7.51294 43.8408 7.9375 43.8408V40.9102H0.802734V38.3421H1.89004C2.92556 38.3421 4.04393 38.3421 5.13123 38.3421C5.42118 38.3421 5.52473 38.2593 5.51437 37.9486C5.51437 36.9131 5.51437 35.7637 5.51437 34.6764C5.51027 33.8963 5.56914 33.1171 5.69041 32.3465C6.16471 29.7043 7.58122 27.3238 9.67719 25.6466C11.1033 24.5056 12.705 23.6034 14.4199 22.9749C15.1264 22.7107 15.8493 22.4928 16.5841 22.3226C16.6932 22.3117 16.8034 22.3225 16.9083 22.3545C17.0132 22.3865 17.1107 22.439 17.1951 22.509L21.2544 25.6984C21.7203 26.0608 22.1863 26.4232 22.6627 26.7339C22.7142 26.7595 22.7709 26.7727 22.8284 26.7727C22.8858 26.7727 22.9425 26.7595 22.994 26.7339L26.929 23.6273C27.5504 23.1406 28.182 22.6643 28.8137 22.1983C28.9282 22.1183 29.0689 22.085 29.2072 22.1051C29.9424 22.2915 30.6569 22.5193 31.3922 22.6954C32.3774 22.9631 33.3266 23.349 34.2191 23.8448C36.4793 24.9694 38.2427 26.8914 39.1689 29.2399C39.6558 30.4293 39.9326 31.6941 39.987 32.9781C39.987 34.5625 40.0906 36.0847 40.1216 37.7208C40.1216 38.0418 40.2148 38.1661 40.5462 38.1557C41.3332 38.1557 42.1202 38.1557 42.9072 38.1557C43.0936 38.1557 43.2489 38.1558 43.2489 38.425V41.2313ZM22.7869 49.4326H35.2132C35.7621 49.4326 35.7621 49.4326 35.7621 48.9045C35.7621 43.965 35.7621 39.0256 35.7621 34.0861C35.7621 32.7607 35.3893 32.5018 34.1777 32.5018H11.3962C11.2376 32.4913 11.0784 32.4913 10.9198 32.5018C10.7737 32.5009 10.629 32.5309 10.4953 32.59C10.3617 32.649 10.242 32.7356 10.1442 32.8442C10.0464 32.9527 9.97264 33.0808 9.92785 33.2199C9.88306 33.359 9.86822 33.506 9.88429 33.6512V48.8734C9.88429 49.4119 9.88429 49.4119 10.4228 49.4119L22.7869 49.4326Z" stroke="#0E8C59" stroke-miterlimit="10"/>
<path d="M22.8394 0.555771C24.7871 0.559872 26.6898 1.14144 28.307 2.22694C29.9242 3.31244 31.1832 4.85312 31.9248 6.65414C32.6663 8.45516 32.8572 10.4356 32.4732 12.3451C32.0892 14.2546 31.1476 16.0074 29.7674 17.3817C28.3873 18.756 26.6306 19.6903 24.7195 20.0662C22.8084 20.4422 20.8288 20.243 19.0309 19.4939C17.233 18.7447 15.6976 17.4793 14.619 15.8575C13.5403 14.2358 12.9667 12.3306 12.9708 10.3829C12.9653 9.08735 13.217 7.80358 13.7115 6.6061C14.206 5.40861 14.9334 4.32123 15.8514 3.40705C16.7695 2.49287 17.8599 1.77009 19.0595 1.28063C20.259 0.791177 21.5438 0.544792 22.8394 0.555771Z" stroke="#0E8C59" stroke-miterlimit="10"/>
<path d="M22.8176 43.5196C22.5154 43.5238 22.2153 43.4679 21.9347 43.3554C21.6541 43.2429 21.3986 43.0759 21.183 42.8641C20.9673 42.6523 20.7957 42.3998 20.6782 42.1213C20.5606 41.8428 20.4994 41.5438 20.498 41.2415C20.5356 40.6388 20.794 40.0711 21.2238 39.6469C21.6537 39.2228 22.2248 38.972 22.828 38.9426C23.4334 38.9801 24.0038 39.2396 24.4299 39.6714C24.8559 40.1032 25.1078 40.677 25.1372 41.2829C25.1183 41.8845 24.8653 42.4549 24.432 42.8727C23.9988 43.2905 23.4195 43.5226 22.8176 43.5196Z" stroke="#0E8C59" stroke-miterlimit="10"/>
</g>
<defs>
<clipPath id="clip0_332_6711">
<rect width="43.4817" height="51.8591" fill="white" transform="translate(0.285156 0.0275879)"/>
</clipPath>
</defs>
</svg>
