<svg width="58" height="71" viewBox="0 0 58 71" fill="none" xmlns="http://www.w3.org/2000/svg">
<path d="M10.1812 56.9097C8.38174 56.9097 6.70027 56.2569 5.4908 55.0451C3.95683 53.5227 3.21934 51.2234 3.48484 48.7377L4.57632 38.6707C4.78281 36.7754 5.87429 34.2587 7.14277 32.8915L31.3618 5.89103C37.4092 -0.851376 43.7221 -1.0378 50.1234 5.33175C56.5248 11.7013 56.7018 18.3505 50.6544 25.0929L26.4354 52.0934C25.1964 53.4916 22.8955 54.7966 21.096 55.1076L11.5972 56.8162C11.0957 56.8473 10.6532 56.9097 10.1812 56.9097ZM40.8311 5.30068C38.5597 5.30068 36.5832 6.79209 34.5773 9.0292L10.3582 36.0611C9.76821 36.7136 9.08973 38.2671 8.97173 39.1682L7.88025 49.2349C7.76225 50.2602 7.99825 51.0991 8.52924 51.6273C9.06023 52.1555 9.85671 52.342 10.8302 52.1866L20.329 50.478C21.1845 50.3227 22.6005 49.5145 23.1905 48.862L47.4095 21.8615C51.0674 17.7601 52.3949 13.9695 47.0555 8.68742C44.6956 6.29495 42.6601 5.30068 40.8311 5.30068Z" fill="#292D32"/>
<path d="M44.9908 32.5677C44.9318 32.5677 44.8433 32.5677 44.7843 32.5677C35.5805 31.6045 28.1762 24.2409 26.7602 14.6089C26.5832 13.335 27.4092 12.1543 28.6187 11.9368C29.8281 11.7503 30.9491 12.6203 31.1556 13.8942C32.2766 21.4134 38.0585 27.1926 45.2563 27.9383C46.4658 28.0626 47.3508 29.2122 47.2328 30.486C47.0853 31.6667 46.1118 32.5677 44.9908 32.5677Z" fill="#292D32"/>
<path d="M55.787 70.3771H2.68804C1.47857 70.3771 0.475586 69.3206 0.475586 68.0465C0.475586 66.7724 1.47857 65.7158 2.68804 65.7158H55.787C56.9965 65.7158 57.9995 66.7724 57.9995 68.0465C57.9995 69.3206 56.9965 70.3771 55.787 70.3771Z" fill="#292D32"/>
</svg>
