<svg width="69" height="70" viewBox="0 0 69 70" fill="none" xmlns="http://www.w3.org/2000/svg">
<path d="M19.9348 67.0981C29.7866 67.0981 37.7729 59.1553 37.7729 49.3572C37.7729 39.559 29.7866 31.6162 19.9348 31.6162C10.0831 31.6162 2.09668 39.559 2.09668 49.3572C2.09668 52.5886 2.96533 55.6181 4.4831 58.2276L2.98859 66.2111L11.0157 64.7247C13.6395 66.2343 16.6857 67.0981 19.9348 67.0981Z" stroke="black" stroke-width="4" stroke-linecap="round" stroke-linejoin="round"/>
<path d="M45.1749 53.8653C48.3413 53.3579 51.3157 52.2806 53.9889 50.7426L65.6647 52.9047L63.4908 41.2925C65.6985 37.4969 66.9621 33.09 66.9621 28.39C66.9621 14.1383 55.3455 2.58496 41.0157 2.58496C27.9537 2.58496 17.1461 12.1844 15.3359 24.6768" stroke="black" stroke-width="4" stroke-linecap="round" stroke-linejoin="round"/>
</svg>
