<svg width="62" height="60" viewBox="0 0 62 60" fill="none" xmlns="http://www.w3.org/2000/svg">
<path d="M31.0549 58.36C47.3495 58.36 60.5591 45.5194 60.5591 29.68C60.5591 13.8405 47.3495 1 31.0549 1C14.7602 1 1.55078 13.8405 1.55078 29.68C1.55078 45.5194 14.7602 58.36 31.0549 58.36Z" stroke="#224DD0" stroke-width="2" stroke-linecap="round" stroke-linejoin="round"/>
<path d="M38.8783 19.6421C36.8572 17.6775 33.2981 16.311 30.027 16.2255M30.027 16.2255C26.1351 16.1237 22.651 17.8352 22.651 22.5101C22.651 31.1141 38.8783 26.8121 38.8783 35.4161C38.8783 40.3232 34.5594 42.4318 30.027 42.2735M30.027 16.2255V11.0381M21.1758 38.2841C23.0773 40.7486 26.6128 42.1542 30.027 42.2735M30.027 42.2735V48.3221" stroke="#224DD0" stroke-width="2" stroke-linecap="round" stroke-linejoin="round"/>
</svg>
